<?xml version="1.0" standalone="no"?>
<!DOCTYPE svg PUBLIC "-//W3C//DTD SVG 20010904//EN"
 "http://www.w3.org/TR/2001/REC-SVG-20010904/DTD/svg10.dtd">
<svg version="1.0" xmlns="http://www.w3.org/2000/svg"
 width="100.000000pt" height="100.000000pt" viewBox="0 0 100.000000 100.000000"
 preserveAspectRatio="xMidYMid meet">

<g transform="translate(0.000000,100.000000) scale(0.100000,-0.100000)"
fill="#000000" stroke="none">
<path d="M561 888 c-11 -28 -6 -38 37 -73 19 -16 45 -46 58 -67 19 -29 31 -38
47 -36 30 4 33 32 6 69 -21 29 -21 31 -2 21 32 -17 90 -87 120 -144 25 -48 28
-62 28 -158 0 -96 -3 -110 -28 -158 -53 -102 -138 -169 -246 -197 -39 -9 -46
-15 -46 -36 0 -22 4 -24 46 -23 61 2 159 53 219 114 96 96 145 246 120 372
-26 133 -112 248 -228 307 -75 38 -119 41 -131 9z"/>
<path d="M707 654 c-4 -4 -7 -35 -7 -69 0 -49 -6 -75 -31 -123 -35 -70 -71
-105 -147 -140 -45 -20 -65 -23 -125 -20 -89 5 -135 26 -205 95 -44 43 -57 51
-75 44 -76 -28 44 -245 171 -310 50 -25 68 -26 76 -5 8 20 -8 40 -46 60 -37
19 -106 81 -120 107 -10 20 -10 20 19 -1 85 -60 251 -70 348 -20 65 33 129 98
163 163 22 42 26 64 26 135 1 78 -1 85 -19 88 -12 2 -24 0 -28 -4z"/>
</g>
</svg>
